<svg xmlns="http://www.w3.org/2000/svg" viewBox="0 0 800 560" role="img" aria-labelledby="title desc">
  <title id="title">Conversations wave illustration</title>
  <desc id="desc">Two abstract speech forms with overlapping wave marks.</desc>
  <rect width="800" height="560" rx="38" fill="#fbf6ed"/>
  <rect x="26" y="26" width="748" height="508" rx="30" fill="none" stroke="#d4c6b2" stroke-width="2"/>
  <path d="M150 354C150 248 216 176 320 176H412C496 176 564 242 564 328C564 414 496 480 412 480H264L192 520L212 462C176 436 150 398 150 354Z" fill="#f3e7d8" stroke="#493d31" stroke-width="4"/>
  <path d="M334 112C388 84 456 80 516 100C614 132 668 232 642 326C616 420 520 474 422 442L346 418L286 448L308 388C252 344 232 262 256 190C270 146 296 122 334 112Z" fill="none" stroke="#b45d34" stroke-width="5"/>
  <g fill="none" stroke="#1f1a16" stroke-linecap="round" stroke-width="5">
    <path d="M230 288C258 266 284 266 314 288C344 310 370 310 398 288C426 266 452 266 482 288"/>
    <path d="M230 334C258 312 284 312 314 334C344 356 370 356 398 334C426 312 452 312 482 334"/>
    <path d="M230 380C258 358 284 358 314 380C344 402 370 402 398 380C426 358 452 358 482 380"/>
  </g>
  <circle cx="586" cy="174" r="16" fill="#b45d34"/>
  <circle cx="626" cy="150" r="10" fill="#1f1a16"/>
  <circle cx="654" cy="126" r="6" fill="#d4c6b2"/>
</svg>
